<svg width="22" height="24" viewBox="0 0 22 24" fill="none" xmlns="http://www.w3.org/2000/svg">
<path d="M1.47041 13.5871L0.354407 12.416C-0.118136 11.9201 -0.118136 11.1182 0.354407 10.6276L10.122 0.372269C10.5945 -0.123617 11.3586 -0.123617 11.8261 0.372269L21.5987 10.6276C22.0713 11.1235 22.0713 11.9254 21.5987 12.416L20.4827 13.5871C20.0051 14.0883 19.226 14.0777 18.7584 13.566L12.9874 7.20917L12.9874 22.3706C12.9874 23.0723 12.4495 23.6367 11.7809 23.6367H10.1722C9.50364 23.6367 8.96574 23.0723 8.96574 22.3706L8.96574 7.20917L3.19469 13.566C2.72717 14.083 1.94798 14.0935 1.47041 13.5871Z" fill="#0000FF"/>
</svg>
